<svg width="637" height="630" viewBox="0 0 637 630" fill="none" xmlns="http://www.w3.org/2000/svg">
<path fill-rule="evenodd" clip-rule="evenodd" d="M363.941 1.01076C413.917 -11.2311 415.713 91.18 457.263 121.53C488.952 144.677 543.916 121.638 569.648 151.267C595.082 180.554 571.949 228.091 582.276 265.48C593.201 305.03 653.962 341.897 631.851 376.462C604.715 418.884 509.2 368.377 487.413 413.778C456.417 478.37 574.357 587.78 512.831 624.486C454.168 659.485 431.597 496.868 363.941 487.441C309.435 479.846 288.114 576.878 233.777 585.602C183.645 593.651 131.587 564.623 93.6908 530.831C54.4216 495.815 32.0859 445.003 18.9607 394.053C5.67697 342.488 -14.2569 278.816 17.8202 236.313C54.2903 187.99 127.245 188.996 185.676 173.152C219.946 163.859 264.772 187.089 290.314 162.424C333.395 120.823 305.773 15.2594 363.941 1.01076Z" fill="url(#paint0_linear_6_59)"/>
<defs>
<linearGradient id="paint0_linear_6_59" x1="318.597" y1="0" x2="318.597" y2="629.413" gradientUnits="userSpaceOnUse">
<stop stop-color="#24DD4D"/>
<stop offset="1" stop-color="#F83FDA"/>
</linearGradient>
</defs>
</svg>
