<svg width="492" height="577" viewBox="0 0 492 577" fill="none" xmlns="http://www.w3.org/2000/svg">
<path fill-rule="evenodd" clip-rule="evenodd" d="M277.846 11.1546C323.657 -7.49656 404.416 -5.93743 421.401 40.5173C448.046 113.395 349.913 189.886 370.542 264.689C381.525 304.511 474.391 251.986 490.24 290.134C504.499 324.453 416.885 332.665 414.183 369.729C410.741 416.955 506.172 460.176 475.231 496.021C443.569 532.701 381.429 442.353 336.289 459.969C296.26 475.59 316.397 554.072 277.846 573.05C246.963 588.254 216.57 543.356 183.081 535.393C139.507 525.032 51.1931 563.994 51.3884 519.205C51.6932 449.313 187.964 429.838 183.846 360.066C180.563 304.446 70.1697 328.879 37.4905 283.752C7.18655 241.904 -17.7352 168.604 18.5919 131.863C57.2518 92.7624 131.508 161.456 181.356 138.247C230.188 115.511 227.957 31.466 277.846 11.1546Z" fill="url(#paint0_linear_6_42)"/>
<defs>
<linearGradient id="paint0_linear_6_42" x1="246.184" y1="0" x2="246.184" y2="576.169" gradientUnits="userSpaceOnUse">
<stop stop-color="#D6A426"/>
<stop offset="1" stop-color="#118AB0"/>
</linearGradient>
</defs>
</svg>
