<svg width="520" height="636" viewBox="0 0 520 636" fill="none" xmlns="http://www.w3.org/2000/svg">
<path fill-rule="evenodd" clip-rule="evenodd" d="M319.578 1.92C389.542 -19.5759 350.759 145.216 390.038 206.975C405.023 230.536 448.612 214.805 467.848 235.044C487.03 255.227 484.291 287.162 491.746 313.989C499.528 341.991 533.634 376.988 512.972 397.426C483.953 426.132 427.409 389.953 392.906 411.762C372.904 424.405 388.518 458.403 381.006 480.841C363.641 532.71 365.719 660.158 319.578 630.783C259.119 592.292 324.968 481.755 286.979 420.979C271.462 396.155 233.093 445.084 203.823 445.598C135.057 446.803 14.6381 493.409 1.02648 425.993C-12.7564 357.729 148.616 383.941 178.692 321.129C200.052 276.518 76.797 221.85 114.246 189.538C155.821 153.666 226.744 281.731 267.282 244.691C329.168 188.143 239.444 26.5405 319.578 1.92Z" fill="url(#paint0_linear_6_61)"/>
<defs>
<linearGradient id="paint0_linear_6_61" x1="259.859" y1="0" x2="259.859" y2="635.124" gradientUnits="userSpaceOnUse">
<stop stop-color="#18A42E"/>
<stop offset="1" stop-color="#118AB0"/>
</linearGradient>
</defs>
</svg>
