<svg width="538" height="627" viewBox="0 0 538 627" fill="none" xmlns="http://www.w3.org/2000/svg">
<path fill-rule="evenodd" clip-rule="evenodd" d="M249.406 3.81037C294.869 -10.8543 358.345 18.5714 378.444 61.9073C404.134 117.299 321.973 193.89 359.794 241.825C397.324 289.39 542.041 203.561 537.905 264.009C533.156 333.416 385.517 292.257 352.166 353.311C329.862 394.143 439.222 425.736 425.308 470.134C414.283 505.313 343.866 444.103 316.108 468.365C273.099 505.958 301.208 599.809 249.406 623.885C209.749 642.315 180.712 572.366 144.236 548.244C112.614 527.331 55.1141 527.801 47.8526 490.59C38.6849 443.612 117.769 408.99 107.92 362.15C98.3332 316.556 -14.668 316.866 2.18999 273.431C20.5571 226.109 113.433 285.54 150.933 251.327C180.22 224.608 140.412 170.795 155.067 133.96C175.126 83.5416 197.764 20.4679 249.406 3.81037Z" fill="url(#paint0_linear_6_44)"/>
<defs>
<linearGradient id="paint0_linear_6_44" x1="269.235" y1="0" x2="269.235" y2="626.941" gradientUnits="userSpaceOnUse">
<stop stop-color="#EB7B1F"/>
<stop offset="1" stop-color="#D6A426"/>
</linearGradient>
</defs>
</svg>
