<svg width="558" height="528" viewBox="0 0 558 528" fill="none" xmlns="http://www.w3.org/2000/svg">
<path fill-rule="evenodd" clip-rule="evenodd" d="M229.956 82.9946C267.452 65.4064 281.513 11.2457 321.801 1.64746C357.724 -6.91071 392.516 19.8526 425.529 36.4015C471.628 59.5112 575.796 71.3336 554.488 118.293C521.87 190.177 401.554 165.185 343.047 218.178C323.338 236.03 367.781 270.195 359.049 295.313C350.944 318.626 312.835 317.994 300.846 339.569C267.894 398.862 297.618 522.768 229.956 527.603C164.938 532.249 189.863 404.502 154.014 350.061C139.023 327.296 84.5375 335.043 85.213 307.794C86.238 266.453 175.171 246.294 157.514 208.9C133.69 158.447 37.5802 187.826 6.64049 141.395C-12.3909 112.835 20.2069 63.6228 51.8477 50.3285C89.8278 34.3707 131.439 64.5024 171.96 71.9341C191.563 75.5295 211.912 91.4586 229.956 82.9946Z" fill="url(#paint0_linear_6_57)"/>
<defs>
<linearGradient id="paint0_linear_6_57" x1="279.159" y1="0" x2="279.159" y2="527.726" gradientUnits="userSpaceOnUse">
<stop stop-color="#118AB0"/>
<stop offset="1" stop-color="#211ECB"/>
</linearGradient>
</defs>
</svg>
