<svg width="598" height="680" viewBox="0 0 598 680" fill="none" xmlns="http://www.w3.org/2000/svg">
<path fill-rule="evenodd" clip-rule="evenodd" d="M256.96 0.2298C314.065 -5.7059 312.66 105.065 362.461 133.634C407.031 159.203 470.137 120.984 514.029 147.703C557.707 174.292 608.334 225.972 595.433 275.454C579.259 337.491 477.231 338.942 449.144 396.573C429.743 436.382 481.252 481.847 473.588 525.464C464.888 574.979 451.081 672.812 403.416 656.828C323.04 629.874 341.613 448.285 256.96 452.818C166.367 457.669 176.542 725.704 102.75 672.928C25.4431 617.638 185.417 500.378 190.779 405.486C192.204 380.273 140.799 397.043 119.067 384.181C76.7962 359.163 20.4123 341.322 4.0915 294.993C-9.0102 257.801 20.354 213.737 49.7756 187.484C79.1193 161.301 132.341 180.89 161.518 154.52C206.953 113.456 196.045 6.56144 256.96 0.2298Z" fill="url(#paint0_linear_6_60)"/>
<defs>
<linearGradient id="paint0_linear_6_60" x1="299.181" y1="0" x2="299.181" y2="679.808" gradientUnits="userSpaceOnUse">
<stop stop-color="#ACDA28"/>
<stop offset="1" stop-color="#DA2FAA"/>
</linearGradient>
</defs>
</svg>
