<svg width="548" height="479" viewBox="0 0 548 479" fill="none" xmlns="http://www.w3.org/2000/svg">
<path fill-rule="evenodd" clip-rule="evenodd" d="M284.674 42.5807C327.229 30.5823 364.994 -5.45026 408.779 0.700865C452.032 6.77733 491.168 38.1594 514.777 74.907C538.103 111.214 561.6 165.084 537.302 200.748C503.147 250.879 375.67 218.505 375.615 279.165C375.542 360.92 562.236 381.902 537.071 459.688C515.268 527.078 412.433 394.131 343.088 379.707C321.753 375.269 304.138 397.388 284.674 407.187C252.068 423.601 222.973 470.367 188.871 457.346C156.418 444.954 186.784 379.207 158.516 359.016C114.143 327.32 -3.86856 377.465 1.007 323.153C6.79646 258.661 161.224 296.38 169.899 232.212C179.732 159.478 27.7895 133.383 36.5149 60.5082C42.6845 8.98001 138.48 66.0561 190.241 62.3167C222.722 59.9702 253.33 51.418 284.674 42.5807Z" fill="url(#paint0_linear_6_47)"/>
<defs>
<linearGradient id="paint0_linear_6_47" x1="274.21" y1="0" x2="274.21" y2="478.633" gradientUnits="userSpaceOnUse">
<stop stop-color="#EB741E"/>
<stop offset="1" stop-color="#7D86DA"/>
</linearGradient>
</defs>
</svg>
