<svg width="456" height="533" viewBox="0 0 456 533" fill="none" xmlns="http://www.w3.org/2000/svg">
<path fill-rule="evenodd" clip-rule="evenodd" d="M156.204 0.127128C190.71 2.99037 193.158 67.6812 227.165 74.1882C278.923 84.0918 330.583 25.0007 380.121 42.9722C421.783 58.0862 472.778 117.246 449.076 154.694C410.222 216.082 274.128 174.114 253.103 243.656C233.931 307.068 385.107 331.137 375.898 396.74C369.188 444.539 274.675 356.919 233.637 382.33C185.076 412.399 213.313 533.72 156.204 532.774C98.5161 531.819 95.9886 435.221 79.9976 379.785C70.6332 347.321 101.439 308.198 83.216 279.746C67.7312 255.569 12.3693 283.385 1.2906 256.898C-8.6536 233.123 44.5552 222.431 48.5971 196.979C53.0898 168.689 17.3315 143.792 23.6884 115.862C29.4942 90.353 59.6318 79.1305 79.3362 61.9214C104.412 40.0211 123.025 -2.62606 156.204 0.127128Z" fill="url(#paint0_linear_6_54)"/>
<defs>
<linearGradient id="paint0_linear_6_54" x1="227.581" y1="0" x2="227.581" y2="532.78" gradientUnits="userSpaceOnUse">
<stop stop-color="#EB7B1F"/>
<stop offset="1" stop-color="#C65F25"/>
</linearGradient>
</defs>
</svg>
