<svg width="539" height="440" viewBox="0 0 539 440" fill="none" xmlns="http://www.w3.org/2000/svg">
<path fill-rule="evenodd" clip-rule="evenodd" d="M248.93 9.04581C276.164 7.74432 309.228 -9.98155 329.694 8.0334C352.601 28.1974 321.836 81.2856 348.288 96.5054C397.491 124.816 503.11 59.4997 515.443 114.91C527.81 170.475 370.245 146.981 372.185 203.872C375.008 286.676 594.274 350.433 525.023 395.917C447.941 446.543 371.495 299.512 288.84 258.613C276.763 252.637 258.117 249.442 248.93 259.299C199.122 312.737 190.058 466.329 123.698 435.788C57.6913 405.41 205.854 297.526 182.493 228.722C168.171 186.542 88.759 244.217 50.7599 220.971C18.818 201.431 -12.1483 153.41 4.79423 120.018C24.2159 81.7392 87.7908 99.0172 124.184 76.2584C146.26 62.4531 148.879 27.929 171.801 15.579C194.804 3.18506 222.831 10.2931 248.93 9.04581Z" fill="url(#paint0_linear_6_51)"/>
<defs>
<linearGradient id="paint0_linear_6_51" x1="269.269" y1="0" x2="269.269" y2="439.768" gradientUnits="userSpaceOnUse">
<stop stop-color="#EB741E"/>
<stop offset="1" stop-color="#DA2FAA"/>
</linearGradient>
</defs>
</svg>
