<svg width="588" height="596" viewBox="0 0 588 596" fill="none" xmlns="http://www.w3.org/2000/svg">
<path fill-rule="evenodd" clip-rule="evenodd" d="M276.634 11.4364C317.06 1.95246 381.639 -13.7159 398.998 24.0045C425.161 80.8533 352.928 145.393 366.408 206.505C372.701 235.035 422.1 223.247 446.493 239.327C494.915 271.246 620.196 305.469 580.085 347.357C526.767 403.038 394.767 274.045 351.896 338.116C304.191 409.412 458.517 503.985 423.026 582.083C399.837 633.11 330.138 520.429 276.634 503.73C241.787 492.854 204.951 504.58 168.497 502.645C115.346 499.824 43.2225 532.281 11.3568 489.648C-21.0757 446.256 30.6822 385.11 40.8802 331.906C47.5502 297.108 54.9857 263.814 61.3258 228.954C67.953 192.516 56.7312 150.093 79.2899 120.72C101.815 91.3915 146.761 93.5053 179.112 75.5902C213.584 56.5007 238.271 20.4364 276.634 11.4364Z" fill="url(#paint0_linear_6_46)"/>
<defs>
<linearGradient id="paint0_linear_6_46" x1="294.345" y1="0" x2="294.345" y2="595.241" gradientUnits="userSpaceOnUse">
<stop stop-color="#7D86DA"/>
<stop offset="1" stop-color="#118AB0"/>
</linearGradient>
</defs>
</svg>
