<svg width="657" height="678" viewBox="0 0 657 678" fill="none" xmlns="http://www.w3.org/2000/svg">
<path fill-rule="evenodd" clip-rule="evenodd" d="M322.5 6.76534C364.561 -24.4404 418.497 59.7769 440.777 107.174C462.499 153.384 429.347 208.677 440.805 258.434C446.407 282.763 469.182 299.183 488.605 314.867C540.373 356.669 623.78 366.572 650.297 427.597C671.245 475.804 631.942 532.463 601.898 575.592C571.188 619.678 530.75 666.192 477.789 675.241C423.307 684.55 359.613 664.288 322.5 623.33C282.077 578.718 314.188 497.126 274.991 451.433C254.991 428.118 214.973 467.828 184.689 462.68C138.428 454.815 86.8565 447.935 54.5016 413.948C22.3088 380.132 -21.079 314.249 12.7629 282.084C61.6452 235.623 145.392 276.403 211.767 264.473C232.19 260.802 258.301 255.543 266.492 236.478C298.002 163.147 258.4 54.3216 322.5 6.76534Z" fill="url(#paint0_linear_6_52)"/>
<defs>
<linearGradient id="paint0_linear_6_52" x1="328.333" y1="0" x2="328.333" y2="677.475" gradientUnits="userSpaceOnUse">
<stop stop-color="#DA2FAA"/>
<stop offset="1" stop-color="#E80A0A"/>
</linearGradient>
</defs>
</svg>
