<svg width="644" height="470" viewBox="0 0 644 470" fill="none" xmlns="http://www.w3.org/2000/svg">
<path fill-rule="evenodd" clip-rule="evenodd" d="M309.704 8.98951C347.216 40.2579 307.009 142.462 355.705 146.15C439.715 152.512 493.421 13.3586 576.175 29.168C628.139 39.0953 546.473 133.367 558.485 184.889C570.58 236.768 648.482 264.819 643.477 317.853C638.728 368.177 586.571 419.632 536.09 422.209C467.535 425.709 420.895 319.518 353.519 332.655C306.904 341.743 349.9 441.055 309.704 466.349C281.581 484.046 260.932 414.103 227.786 411.775C166.931 407.502 56.1861 508.93 50.768 448.166C43.3652 365.144 225.915 345.962 214.555 263.389C204.412 189.662 56.6989 234.232 13.043 173.961C-15.8073 134.13 9.25537 63.6262 47.1893 32.3236C87.6691 -1.07978 149.728 22.6791 202.005 18.0324C238.345 14.8022 281.679 -14.3703 309.704 8.98951Z" fill="url(#paint0_linear_6_41)"/>
<defs>
<linearGradient id="paint0_linear_6_41" x1="322.117" y1="0" x2="322.117" y2="469.215" gradientUnits="userSpaceOnUse">
<stop stop-color="#ACDA28"/>
<stop offset="1" stop-color="#C65F25"/>
</linearGradient>
</defs>
</svg>
