<svg width="560" height="650" viewBox="0 0 560 650" fill="none" xmlns="http://www.w3.org/2000/svg">
<path fill-rule="evenodd" clip-rule="evenodd" d="M311.78 6.20713C360.607 37.8989 332.378 124.958 371.656 167.919C392.485 190.702 453.597 142.242 463.028 171.636C474.911 208.674 420.024 235.267 404.739 271.034C399.167 284.073 394.455 301.394 402.621 312.985C448.212 377.703 541.404 411.221 558.02 488.621C569.082 540.148 513.269 589.533 467.657 615.934C421.901 642.418 348.835 668.86 311.78 631.15C256.349 574.738 319.669 453.072 258.44 403.014C214.948 367.458 157.332 468.941 101.939 459.595C57.1143 452.031 25.0563 404.035 10.0948 361.109C-4.98726 317.838 -2.14431 265.63 20.4345 225.754C42.8969 186.084 98.0074 179.592 130.804 147.928C158.606 121.087 167.028 78.6756 197.453 54.8494C230.474 28.9911 276.6 -16.627 311.78 6.20713Z" fill="url(#paint0_linear_6_56)"/>
<defs>
<linearGradient id="paint0_linear_6_56" x1="280.074" y1="0" x2="280.074" y2="649.926" gradientUnits="userSpaceOnUse">
<stop stop-color="#941ADF"/>
<stop offset="1" stop-color="#7D86DA"/>
</linearGradient>
</defs>
</svg>
