<svg width="557" height="567" viewBox="0 0 557 567" fill="none" xmlns="http://www.w3.org/2000/svg">
<path fill-rule="evenodd" clip-rule="evenodd" d="M217.542 10.1296C263.808 2.24886 317.593 -10.5282 356.46 15.7778C396.395 42.8068 408.379 97.7127 417.037 145.151C424.197 184.387 381.724 227.602 401.445 262.268C433.223 318.128 529.928 319.533 550.814 380.31C567.709 429.473 542.72 521.57 490.738 522.109C398.596 523.065 338.112 424.49 255.648 383.371C244.112 377.618 226.164 376.301 217.542 385.885C167.984 440.978 162.94 545.561 91.6283 565.706C46.5 578.455 64.5861 477.232 59.0067 430.671C55.3255 399.951 73.7794 368.688 64.4835 339.178C53.998 305.89 -14.7475 285.015 3.81589 255.461C26.8134 218.849 111.183 273.415 130.185 234.578C156.548 180.697 77.9306 115.415 99.6875 59.515C115.333 19.317 175.019 17.3727 217.542 10.1296Z" fill="url(#paint0_linear_6_49)"/>
<defs>
<linearGradient id="paint0_linear_6_49" x1="278.353" y1="0" x2="278.353" y2="566.807" gradientUnits="userSpaceOnUse">
<stop stop-color="#24DD4D"/>
<stop offset="1" stop-color="#ACDA28"/>
</linearGradient>
</defs>
</svg>
