<svg width="681" height="629" viewBox="0 0 681 629" fill="none" xmlns="http://www.w3.org/2000/svg">
<path fill-rule="evenodd" clip-rule="evenodd" d="M353.455 76.1836C391.649 31.1089 452.611 -5.56049 511.359 0.698405C565.262 6.44116 602.773 60.7055 632.661 105.93C661.588 149.699 686.726 202.409 678.958 254.295C671.179 306.259 607.418 332.875 591.205 382.854C576.966 426.75 631.009 493.505 592.913 519.55C547.407 550.662 482.163 468.831 432.004 491.696C383.494 513.81 406.737 630.511 353.455 628.71C299.042 626.871 298.967 536.471 277.423 486.471C266.255 460.551 271.304 429.794 257.212 405.341C245.915 385.738 225.141 374.104 205.852 362.279C138.272 320.849 1.35282 327.334 0.671932 248.069C0.0704925 178.052 134.558 212.036 204.542 209.835C241.399 208.676 282.552 262.972 309.994 238.342C352.17 200.489 316.819 119.42 353.455 76.1836Z" fill="url(#paint0_linear_6_58)"/>
<defs>
<linearGradient id="paint0_linear_6_58" x1="340.528" y1="0" x2="340.528" y2="628.731" gradientUnits="userSpaceOnUse">
<stop stop-color="#BA0DA9"/>
<stop offset="1" stop-color="#ACDA28"/>
</linearGradient>
</defs>
</svg>
