<svg width="683" height="668" viewBox="0 0 683 668" fill="none" xmlns="http://www.w3.org/2000/svg">
<path fill-rule="evenodd" clip-rule="evenodd" d="M359.561 18.3719C397.272 -5.27988 474.624 -10.8674 490.863 30.5786C516.723 96.5794 435.699 165.087 444.6 235.412C448.085 262.94 496.892 252.223 520.718 266.445C577.143 300.126 697.321 312.936 681.194 376.639C664.858 441.17 552.457 405.163 485.901 403.98C452.508 403.387 407.226 341.56 392.443 371.508C349.07 459.381 426.472 588.343 359.561 659.939C318.923 703.423 309.348 544.571 256.764 516.689C207.296 490.459 95.4809 573.286 90.8956 517.482C84.2528 436.639 264.393 407.989 241.44 330.189C216.492 245.629 39.5631 302.56 3.72263 222.01C-20.0869 168.5 100.77 155.384 157.88 142.392C201.366 132.5 251.188 180.435 289.177 157.074C333.902 129.572 315.082 46.2693 359.561 18.3719Z" fill="url(#paint0_linear_6_45)"/>
<defs>
<linearGradient id="paint0_linear_6_45" x1="341.663" y1="0" x2="341.663" y2="667.429" gradientUnits="userSpaceOnUse">
<stop stop-color="#EB7B1F"/>
<stop offset="1" stop-color="#211ECB"/>
</linearGradient>
</defs>
</svg>
