<svg width="630" height="604" viewBox="0 0 630 604" fill="none" xmlns="http://www.w3.org/2000/svg">
<path fill-rule="evenodd" clip-rule="evenodd" d="M288.726 127.217C353.706 125.929 368.465 -4.01798 433.327 0.09564C484.152 3.31898 496.689 89.5068 489.851 139.973C482.362 195.232 368.528 227.336 395.955 275.89C437.3 349.086 578.099 306.134 623.627 376.804C650.996 419.286 581.739 471.28 541.681 502.09C503.703 531.301 450.693 526.567 406.106 544.108C365.047 560.261 331.481 612.502 288.726 601.607C241.679 589.617 243.794 503.785 197.006 490.822C134.707 473.56 42.1253 579.072 8.38287 523.93C-27.9822 464.503 97.175 411.186 105.984 342.074C110.917 303.367 57.55 281.097 43.9967 244.507C23.7861 189.943 -15.5751 129.491 7.44918 76.0539C28.303 27.6539 95.0075 -3.65803 146.858 5.77343C208.88 17.055 225.698 128.466 288.726 127.217Z" fill="url(#paint0_linear_6_55)"/>
<defs>
<linearGradient id="paint0_linear_6_55" x1="315.15" y1="0" x2="315.15" y2="603.088" gradientUnits="userSpaceOnUse">
<stop stop-color="#BA0DA9"/>
<stop offset="1" stop-color="#18A42E"/>
</linearGradient>
</defs>
</svg>
