<svg width="520" height="472" viewBox="0 0 520 472" fill="none" xmlns="http://www.w3.org/2000/svg">
<path fill-rule="evenodd" clip-rule="evenodd" d="M225.605 108.245C264.861 91.1914 274.136 33.1178 313.878 17.2289C358.952 -0.791689 416.029 -9.48393 457.67 15.4647C495.68 38.2379 538.199 100.339 511.071 135.375C464.447 195.59 312.814 142.508 301.042 217.749C288.227 299.666 455.296 314.167 470.344 395.704C478.697 440.966 387.469 432.86 342.764 443.815C304.156 453.277 265.309 453.737 225.605 455.678C184.198 457.702 126.058 489.86 102.796 455.546C71.387 409.215 138.462 340.08 113.332 290.065C95.278 254.133 4.33703 291.941 0.481189 251.914C-3.6941 208.57 77.6552 208.426 101.989 172.316C115.307 152.553 87.7859 121.068 101.696 101.717C115.379 82.6801 144.464 79.4207 167.875 80.6541C189.444 81.7905 205.794 116.851 225.605 108.245Z" fill="url(#paint0_linear_6_53)"/>
<defs>
<linearGradient id="paint0_linear_6_53" x1="259.989" y1="0" x2="259.989" y2="471.293" gradientUnits="userSpaceOnUse">
<stop stop-color="#DA2FAA"/>
<stop offset="1" stop-color="#941ADF"/>
</linearGradient>
</defs>
</svg>
