<svg width="624" height="514" viewBox="0 0 624 514" fill="none" xmlns="http://www.w3.org/2000/svg">
<path fill-rule="evenodd" clip-rule="evenodd" d="M343.509 132.489C362.652 156.987 345.357 223.889 376.006 218.667C458.557 204.601 504.832 88.6527 588.547 90.7365C634.477 91.8798 617.806 178.853 613.284 224.573C609.224 265.633 564.503 295.269 564.238 336.528C563.87 393.932 655.505 462.993 611.519 499.879C561.652 541.698 484.93 477.516 424.289 453.889C392.93 441.671 377.126 397.039 343.509 395.457C312.311 393.989 297.217 441.959 266.309 446.455C234.814 451.037 206.274 429.222 175.86 419.843C116.511 401.541 2.35315 426.535 0.408804 364.458C-1.77722 294.665 152.131 314.03 170.436 246.645C187.63 183.345 69.3907 140.084 78.9828 75.1953C86.2484 26.0438 158.057 -8.63018 206.616 1.88734C269.036 15.4068 304.185 82.1636 343.509 132.489Z" fill="url(#paint0_linear_6_48)"/>
<defs>
<linearGradient id="paint0_linear_6_48" x1="311.927" y1="0" x2="311.927" y2="513.702" gradientUnits="userSpaceOnUse">
<stop stop-color="#18A42E"/>
<stop offset="1" stop-color="#D6A426"/>
</linearGradient>
</defs>
</svg>
