<svg width="618" height="494" viewBox="0 0 618 494" fill="none" xmlns="http://www.w3.org/2000/svg">
<path fill-rule="evenodd" clip-rule="evenodd" d="M329.564 90.4848C371.907 88.399 397.975 38.5239 439.428 29.6373C497.86 17.1106 606.258 -29.9027 616.459 28.9802C630.445 109.714 495.419 146.087 473.267 224.972C463.79 258.721 545.943 271.208 538.802 305.528C531.742 339.454 478.27 336.541 446.961 351.392C427.076 360.823 401.327 360.568 387.193 377.438C359.487 410.506 369.838 476.043 329.564 491.507C297.132 503.96 271.601 454.983 245.789 431.731C224.772 412.798 217.997 378.529 191.937 367.525C133.558 342.875 43.4903 383.554 7.75549 331.222C-20.5049 289.835 44.0487 237.39 77.7454 200.295C105.032 170.256 154.185 169.691 181.638 139.804C206.424 112.82 190.034 51.7988 224.792 40.2102C262.007 27.8028 290.383 92.4148 329.564 90.4848Z" fill="url(#paint0_linear_6_50)"/>
<defs>
<linearGradient id="paint0_linear_6_50" x1="309.127" y1="0" x2="309.127" y2="493.503" gradientUnits="userSpaceOnUse">
<stop stop-color="#EB741E"/>
<stop offset="1" stop-color="#ACDA28"/>
</linearGradient>
</defs>
</svg>
