<svg width="592" height="579" viewBox="0 0 592 579" fill="none" xmlns="http://www.w3.org/2000/svg">
<path fill-rule="evenodd" clip-rule="evenodd" d="M332.627 0.87391C381.412 10.4747 369.505 101.581 414.091 123.587C457.994 145.257 517.258 86.3933 558.702 112.46C594.564 135.015 594.097 191.923 589.742 234.064C585.638 273.762 548.165 301.23 535.286 339.004C523.991 372.134 528.469 407.704 519.049 441.415C506.003 488.103 515.286 561.467 469.051 576.035C418.79 591.871 369.096 538.191 332.627 500.152C304.075 470.371 328.633 384.451 287.432 386.597C197.789 391.266 101.565 591.005 54.3767 514.646C5.52658 435.598 258.576 404.858 242.191 313.39C226.736 227.116 14.928 303.618 1.0707 217.073C-10.9011 142.304 158.904 243.702 225.164 207.05C260.38 187.57 215.504 123.854 234.105 88.1665C254.643 48.7638 289.029 -7.70598 332.627 0.87391Z" fill="url(#paint0_linear_6_43)"/>
<defs>
<linearGradient id="paint0_linear_6_43" x1="296.125" y1="0" x2="296.125" y2="578.882" gradientUnits="userSpaceOnUse">
<stop stop-color="#118AB0"/>
<stop offset="1" stop-color="#C65F25"/>
</linearGradient>
</defs>
</svg>
